<svg width="205" height="24" viewBox="0 0 205 24" fill="none" xmlns="http://www.w3.org/2000/svg">
<path d="M11.5 5H11.9344C14.9816 5 16.5053 5 17.0836 5.54729C17.5836 6.02037 17.8051 6.71728 17.6702 7.39221C17.514 8.17302 16.2701 9.05285 13.7823 10.8125L9.71772 13.6875C7.2299 15.4471 5.98599 16.327 5.82984 17.1078C5.69486 17.7827 5.91642 18.4796 6.41636 18.9527C6.99474 19.5 8.51836 19.5 11.5656 19.5H12.5M8 5C8 6.65685 6.65685 8 5 8C3.34315 8 2 6.65685 2 5C2 3.34315 3.34315 2 5 2C6.65685 2 8 3.34315 8 5ZM22 19C22 20.6569 20.6569 22 19 22C17.3431 22 16 20.6569 16 19C16 17.3431 17.3431 16 19 16C20.6569 16 22 17.3431 22 19Z" stroke="black" stroke-width="2" stroke-linecap="round" stroke-linejoin="round"/>
<path d="M39.6357 17L38.4053 13.8281H34.3994L33.1758 17H32L35.9102 6.96484H36.9561L40.8389 17H39.6357ZM38.0566 12.7959L36.8877 9.64453C36.8604 9.5625 36.8148 9.42806 36.751 9.24121C36.6917 9.05436 36.6302 8.86068 36.5664 8.66016C36.5026 8.45964 36.4502 8.29785 36.4092 8.1748C36.3636 8.36165 36.3135 8.5485 36.2588 8.73535C36.2087 8.91764 36.1585 9.08854 36.1084 9.24805C36.0583 9.40299 36.015 9.53516 35.9785 9.64453L34.7891 12.7959H38.0566ZM45.0566 17.1367C44.3822 17.1367 43.7874 16.9977 43.2725 16.7197C42.7575 16.4417 42.3564 16.0179 42.0693 15.4482C41.7822 14.8786 41.6387 14.1608 41.6387 13.2949C41.6387 12.388 41.7891 11.6475 42.0898 11.0732C42.3952 10.4945 42.8145 10.0661 43.3477 9.78809C43.8809 9.51009 44.487 9.37109 45.166 9.37109C45.5397 9.37109 45.8997 9.40983 46.2461 9.4873C46.597 9.56022 46.8841 9.65365 47.1074 9.76758L46.7656 10.7178C46.5378 10.6266 46.2734 10.5446 45.9727 10.4717C45.6764 10.3988 45.3984 10.3623 45.1387 10.3623C44.6191 10.3623 44.1862 10.474 43.8398 10.6973C43.498 10.9206 43.2406 11.2487 43.0674 11.6816C42.8988 12.1146 42.8145 12.6478 42.8145 13.2812C42.8145 13.8874 42.8965 14.4046 43.0605 14.833C43.2292 15.2614 43.4775 15.5895 43.8057 15.8174C44.1383 16.0407 44.5531 16.1523 45.0498 16.1523C45.4463 16.1523 45.804 16.1113 46.123 16.0293C46.4421 15.9427 46.7314 15.8424 46.9912 15.7285V16.7402C46.7406 16.8678 46.4603 16.9658 46.1504 17.0342C45.8451 17.1025 45.4805 17.1367 45.0566 17.1367ZM51.7695 17.1367C51.0951 17.1367 50.5003 16.9977 49.9854 16.7197C49.4704 16.4417 49.0693 16.0179 48.7822 15.4482C48.4951 14.8786 48.3516 14.1608 48.3516 13.2949C48.3516 12.388 48.502 11.6475 48.8027 11.0732C49.1081 10.4945 49.5273 10.0661 50.0605 9.78809C50.5938 9.51009 51.1999 9.37109 51.8789 9.37109C52.2526 9.37109 52.6126 9.40983 52.959 9.4873C53.3099 9.56022 53.597 9.65365 53.8203 9.76758L53.4785 10.7178C53.2507 10.6266 52.9863 10.5446 52.6855 10.4717C52.3893 10.3988 52.1113 10.3623 51.8516 10.3623C51.332 10.3623 50.8991 10.474 50.5527 10.6973C50.2109 10.9206 49.9535 11.2487 49.7803 11.6816C49.6117 12.1146 49.5273 12.6478 49.5273 13.2812C49.5273 13.8874 49.6094 14.4046 49.7734 14.833C49.9421 15.2614 50.1904 15.5895 50.5186 15.8174C50.8512 16.0407 51.266 16.1523 51.7627 16.1523C52.1592 16.1523 52.5169 16.1113 52.8359 16.0293C53.1549 15.9427 53.4443 15.8424 53.7041 15.7285V16.7402C53.4535 16.8678 53.1732 16.9658 52.8633 17.0342C52.5579 17.1025 52.1934 17.1367 51.7695 17.1367ZM58.3662 9.37109C59.0042 9.37109 59.5511 9.51237 60.0068 9.79492C60.4626 10.0775 60.8112 10.474 61.0527 10.9844C61.2943 11.4902 61.415 12.0827 61.415 12.7617V13.4658H56.2402C56.2539 14.3454 56.4727 15.0153 56.8965 15.4756C57.3203 15.9359 57.9173 16.166 58.6875 16.166C59.1615 16.166 59.5807 16.1227 59.9453 16.0361C60.3099 15.9495 60.6882 15.8219 61.0801 15.6533V16.6514C60.7018 16.82 60.3258 16.943 59.9521 17.0205C59.583 17.098 59.1455 17.1367 58.6396 17.1367C57.9196 17.1367 57.2907 16.9909 56.7529 16.6992C56.2197 16.403 55.805 15.9701 55.5088 15.4004C55.2126 14.8307 55.0645 14.1335 55.0645 13.3086C55.0645 12.502 55.1989 11.8047 55.4678 11.2168C55.7412 10.6243 56.124 10.1686 56.6162 9.84961C57.113 9.5306 57.6963 9.37109 58.3662 9.37109ZM58.3525 10.3008C57.7464 10.3008 57.2633 10.499 56.9033 10.8955C56.5433 11.292 56.3291 11.8457 56.2607 12.5566H60.2256C60.221 12.11 60.1504 11.7181 60.0137 11.3809C59.8815 11.0391 59.6787 10.7747 59.4053 10.5879C59.1318 10.3965 58.7809 10.3008 58.3525 10.3008ZM68.1895 14.9492C68.1895 15.4277 68.0687 15.8311 67.8271 16.1592C67.5902 16.4827 67.2484 16.7266 66.8018 16.8906C66.3597 17.0547 65.8311 17.1367 65.2158 17.1367C64.6917 17.1367 64.2383 17.0957 63.8555 17.0137C63.4727 16.9316 63.1377 16.8154 62.8506 16.665V15.6191C63.1559 15.7695 63.5205 15.9062 63.9443 16.0293C64.3682 16.1523 64.8011 16.2139 65.2432 16.2139C65.8903 16.2139 66.3597 16.109 66.6514 15.8994C66.943 15.6898 67.0889 15.4049 67.0889 15.0449C67.0889 14.8398 67.0296 14.6598 66.9111 14.5049C66.7972 14.3454 66.6035 14.1927 66.3301 14.0469C66.0566 13.8965 65.6784 13.7324 65.1953 13.5547C64.7168 13.3724 64.3021 13.1924 63.9512 13.0146C63.6048 12.8324 63.3359 12.6113 63.1445 12.3516C62.9577 12.0918 62.8643 11.7546 62.8643 11.3398C62.8643 10.7064 63.1195 10.221 63.6299 9.88379C64.1449 9.54199 64.8193 9.37109 65.6533 9.37109C66.1045 9.37109 66.526 9.41667 66.918 9.50781C67.3145 9.5944 67.6836 9.71289 68.0254 9.86328L67.6426 10.7725C67.3327 10.6403 67.0023 10.5286 66.6514 10.4375C66.3005 10.3464 65.9427 10.3008 65.5781 10.3008C65.054 10.3008 64.6507 10.3874 64.3682 10.5605C64.0902 10.7337 63.9512 10.9707 63.9512 11.2715C63.9512 11.5039 64.015 11.6953 64.1426 11.8457C64.2747 11.9961 64.4844 12.1374 64.7715 12.2695C65.0586 12.4017 65.4368 12.5566 65.9062 12.7344C66.3757 12.9076 66.7812 13.0876 67.123 13.2744C67.4648 13.4567 67.7269 13.68 67.9092 13.9443C68.096 14.2041 68.1895 14.5391 68.1895 14.9492ZM74.8613 14.9492C74.8613 15.4277 74.7406 15.8311 74.499 16.1592C74.262 16.4827 73.9202 16.7266 73.4736 16.8906C73.0316 17.0547 72.5029 17.1367 71.8877 17.1367C71.3636 17.1367 70.9102 17.0957 70.5273 17.0137C70.1445 16.9316 69.8096 16.8154 69.5225 16.665V15.6191C69.8278 15.7695 70.1924 15.9062 70.6162 16.0293C71.04 16.1523 71.473 16.2139 71.915 16.2139C72.5622 16.2139 73.0316 16.109 73.3232 15.8994C73.6149 15.6898 73.7607 15.4049 73.7607 15.0449C73.7607 14.8398 73.7015 14.6598 73.583 14.5049C73.4691 14.3454 73.2754 14.1927 73.002 14.0469C72.7285 13.8965 72.3503 13.7324 71.8672 13.5547C71.3887 13.3724 70.974 13.1924 70.623 13.0146C70.2767 12.8324 70.0078 12.6113 69.8164 12.3516C69.6296 12.0918 69.5361 11.7546 69.5361 11.3398C69.5361 10.7064 69.7913 10.221 70.3018 9.88379C70.8167 9.54199 71.4912 9.37109 72.3252 9.37109C72.7764 9.37109 73.1979 9.41667 73.5898 9.50781C73.9863 9.5944 74.3555 9.71289 74.6973 9.86328L74.3145 10.7725C74.0046 10.6403 73.6742 10.5286 73.3232 10.4375C72.9723 10.3464 72.6146 10.3008 72.25 10.3008C71.7259 10.3008 71.3226 10.3874 71.04 10.5605C70.762 10.7337 70.623 10.9707 70.623 11.2715C70.623 11.5039 70.6868 11.6953 70.8145 11.8457C70.9466 11.9961 71.1562 12.1374 71.4434 12.2695C71.7305 12.4017 72.1087 12.5566 72.5781 12.7344C73.0475 12.9076 73.4531 13.0876 73.7949 13.2744C74.1367 13.4567 74.3988 13.68 74.5811 13.9443C74.7679 14.2041 74.8613 14.5391 74.8613 14.9492ZM77.8213 9.50781V17H76.6865V9.50781H77.8213ZM77.2676 6.70508C77.4544 6.70508 77.6139 6.7666 77.7461 6.88965C77.8828 7.00814 77.9512 7.19499 77.9512 7.4502C77.9512 7.70085 77.8828 7.8877 77.7461 8.01074C77.6139 8.13379 77.4544 8.19531 77.2676 8.19531C77.0716 8.19531 76.9076 8.13379 76.7754 8.01074C76.6478 7.8877 76.584 7.70085 76.584 7.4502C76.584 7.19499 76.6478 7.00814 76.7754 6.88965C76.9076 6.7666 77.0716 6.70508 77.2676 6.70508ZM81.3623 6.36328V9.02246C81.3623 9.3278 81.3532 9.62402 81.335 9.91113C81.3213 10.1982 81.3099 10.4215 81.3008 10.5811H81.3623C81.5674 10.2438 81.8636 9.95898 82.251 9.72656C82.6383 9.49414 83.1328 9.37793 83.7344 9.37793C84.6732 9.37793 85.4206 9.70378 85.9766 10.3555C86.5371 11.0026 86.8174 11.9665 86.8174 13.2471C86.8174 14.0902 86.6898 14.8011 86.4346 15.3799C86.1794 15.9587 85.8193 16.3962 85.3545 16.6924C84.8896 16.9886 84.3405 17.1367 83.707 17.1367C83.1146 17.1367 82.627 17.0273 82.2441 16.8086C81.8659 16.5853 81.5742 16.3141 81.3691 15.9951H81.2803L81.0479 17H80.2275V6.36328H81.3623ZM83.5498 10.3281C83.0075 10.3281 82.5768 10.4352 82.2578 10.6494C81.9388 10.859 81.7087 11.1781 81.5674 11.6064C81.4307 12.0303 81.3623 12.568 81.3623 13.2197V13.2812C81.3623 14.2246 81.5195 14.9469 81.834 15.4482C82.1484 15.945 82.7204 16.1934 83.5498 16.1934C84.2471 16.1934 84.7689 15.9382 85.1152 15.4277C85.4661 14.9173 85.6416 14.1882 85.6416 13.2402C85.6416 12.2741 85.4684 11.5472 85.1221 11.0596C84.7803 10.5719 84.2562 10.3281 83.5498 10.3281ZM89.9346 9.50781V17H88.7998V9.50781H89.9346ZM89.3809 6.70508C89.5677 6.70508 89.7272 6.7666 89.8594 6.88965C89.9961 7.00814 90.0645 7.19499 90.0645 7.4502C90.0645 7.70085 89.9961 7.8877 89.8594 8.01074C89.7272 8.13379 89.5677 8.19531 89.3809 8.19531C89.1849 8.19531 89.0208 8.13379 88.8887 8.01074C88.7611 7.8877 88.6973 7.70085 88.6973 7.4502C88.6973 7.19499 88.7611 7.00814 88.8887 6.88965C89.0208 6.7666 89.1849 6.70508 89.3809 6.70508ZM93.4824 17H92.3408V6.36328H93.4824V17ZM97.0166 9.50781V17H95.8818V9.50781H97.0166ZM96.4629 6.70508C96.6497 6.70508 96.8092 6.7666 96.9414 6.88965C97.0781 7.00814 97.1465 7.19499 97.1465 7.4502C97.1465 7.70085 97.0781 7.8877 96.9414 8.01074C96.8092 8.13379 96.6497 8.19531 96.4629 8.19531C96.2669 8.19531 96.1029 8.13379 95.9707 8.01074C95.8431 7.8877 95.7793 7.70085 95.7793 7.4502C95.7793 7.19499 95.8431 7.00814 95.9707 6.88965C96.1029 6.7666 96.2669 6.70508 96.4629 6.70508ZM101.843 16.207C102.03 16.207 102.221 16.1911 102.417 16.1592C102.613 16.1273 102.772 16.0885 102.896 16.043V16.9248C102.763 16.984 102.579 17.0342 102.342 17.0752C102.109 17.1162 101.882 17.1367 101.658 17.1367C101.262 17.1367 100.902 17.0684 100.578 16.9316C100.255 16.7904 99.9948 16.5534 99.7988 16.2207C99.6074 15.888 99.5117 15.4277 99.5117 14.8398V10.3965H98.4453V9.84277L99.5186 9.39844L99.9697 7.77148H100.653V9.50781H102.848V10.3965H100.653V14.8057C100.653 15.2751 100.76 15.626 100.975 15.8584C101.193 16.0908 101.483 16.207 101.843 16.207ZM103.23 9.50781H104.447L106.102 13.8555C106.197 14.1107 106.286 14.3568 106.368 14.5938C106.45 14.8262 106.523 15.0495 106.587 15.2637C106.651 15.4779 106.701 15.6852 106.737 15.8857H106.785C106.849 15.6579 106.94 15.3594 107.059 14.9902C107.177 14.6165 107.305 14.236 107.441 13.8486L109.007 9.50781H110.23L106.97 18.1006C106.797 18.5609 106.594 18.9619 106.361 19.3037C106.133 19.6455 105.855 19.9076 105.527 20.0898C105.199 20.2767 104.803 20.3701 104.338 20.3701C104.124 20.3701 103.935 20.3564 103.771 20.3291C103.606 20.3063 103.465 20.279 103.347 20.2471V19.3379C103.447 19.3607 103.568 19.3812 103.709 19.3994C103.855 19.4176 104.005 19.4268 104.16 19.4268C104.443 19.4268 104.687 19.3721 104.892 19.2627C105.101 19.1579 105.281 19.0029 105.432 18.7979C105.582 18.5928 105.712 18.349 105.821 18.0664L106.231 17.0137L103.23 9.50781ZM115.234 17V7.00586H116.396V15.9609H120.833V17H115.234ZM125.263 9.37109C125.901 9.37109 126.448 9.51237 126.903 9.79492C127.359 10.0775 127.708 10.474 127.949 10.9844C128.191 11.4902 128.312 12.0827 128.312 12.7617V13.4658H123.137C123.15 14.3454 123.369 15.0153 123.793 15.4756C124.217 15.9359 124.814 16.166 125.584 16.166C126.058 16.166 126.477 16.1227 126.842 16.0361C127.206 15.9495 127.585 15.8219 127.977 15.6533V16.6514C127.598 16.82 127.222 16.943 126.849 17.0205C126.479 17.098 126.042 17.1367 125.536 17.1367C124.816 17.1367 124.187 16.9909 123.649 16.6992C123.116 16.403 122.701 15.9701 122.405 15.4004C122.109 14.8307 121.961 14.1335 121.961 13.3086C121.961 12.502 122.095 11.8047 122.364 11.2168C122.638 10.6243 123.021 10.1686 123.513 9.84961C124.009 9.5306 124.593 9.37109 125.263 9.37109ZM125.249 10.3008C124.643 10.3008 124.16 10.499 123.8 10.8955C123.44 11.292 123.226 11.8457 123.157 12.5566H127.122C127.118 12.11 127.047 11.7181 126.91 11.3809C126.778 11.0391 126.575 10.7747 126.302 10.5879C126.028 10.3965 125.677 10.3008 125.249 10.3008ZM133.042 9.38477C133.935 9.38477 134.598 9.58529 135.031 9.98633C135.464 10.3874 135.681 11.0277 135.681 11.9072V17H134.854L134.635 15.8926H134.58C134.37 16.166 134.152 16.3962 133.924 16.583C133.696 16.7653 133.432 16.9043 133.131 17C132.835 17.0911 132.47 17.1367 132.037 17.1367C131.581 17.1367 131.176 17.057 130.82 16.8975C130.469 16.738 130.191 16.4964 129.986 16.1729C129.786 15.8493 129.686 15.4391 129.686 14.9424C129.686 14.195 129.982 13.6208 130.574 13.2197C131.167 12.8187 132.069 12.5999 133.281 12.5635L134.573 12.5088V12.0508C134.573 11.4036 134.434 10.9502 134.156 10.6904C133.878 10.4307 133.486 10.3008 132.98 10.3008C132.589 10.3008 132.215 10.3577 131.859 10.4717C131.504 10.5856 131.167 10.7201 130.848 10.875L130.499 10.0137C130.836 9.84049 131.224 9.69238 131.661 9.56934C132.099 9.44629 132.559 9.38477 133.042 9.38477ZM134.56 13.3086L133.418 13.3564C132.484 13.3929 131.825 13.5456 131.442 13.8145C131.06 14.0833 130.868 14.4639 130.868 14.9561C130.868 15.3844 130.998 15.7012 131.258 15.9062C131.518 16.1113 131.862 16.2139 132.29 16.2139C132.955 16.2139 133.5 16.0293 133.924 15.6602C134.348 15.291 134.56 14.7373 134.56 13.999V13.3086ZM141.423 9.37109C141.573 9.37109 141.73 9.38021 141.895 9.39844C142.059 9.41211 142.204 9.43262 142.332 9.45996L142.188 10.5127C142.065 10.4808 141.929 10.4557 141.778 10.4375C141.628 10.4193 141.487 10.4102 141.354 10.4102C141.054 10.4102 140.769 10.4717 140.5 10.5947C140.236 10.7132 140.003 10.8864 139.803 11.1143C139.602 11.3376 139.445 11.6087 139.331 11.9277C139.217 12.2422 139.16 12.5931 139.16 12.9805V17H138.019V9.50781H138.962L139.085 10.8887H139.133C139.288 10.6107 139.475 10.3577 139.693 10.1299C139.912 9.89746 140.165 9.71289 140.452 9.57617C140.744 9.43945 141.067 9.37109 141.423 9.37109ZM147.295 9.37109C148.184 9.37109 148.856 9.58984 149.312 10.0273C149.767 10.4603 149.995 11.1576 149.995 12.1191V17H148.874V12.1943C148.874 11.57 148.73 11.1029 148.443 10.793C148.161 10.4831 147.726 10.3281 147.138 10.3281C146.308 10.3281 145.725 10.5628 145.388 11.0322C145.05 11.5016 144.882 12.1829 144.882 13.0762V17H143.747V9.50781H144.663L144.834 10.5879H144.896C145.055 10.3236 145.258 10.1025 145.504 9.9248C145.75 9.74251 146.026 9.60579 146.331 9.51465C146.636 9.41895 146.958 9.37109 147.295 9.37109ZM153.468 9.50781V17H152.333V9.50781H153.468ZM152.914 6.70508C153.101 6.70508 153.26 6.7666 153.393 6.88965C153.529 7.00814 153.598 7.19499 153.598 7.4502C153.598 7.70085 153.529 7.8877 153.393 8.01074C153.26 8.13379 153.101 8.19531 152.914 8.19531C152.718 8.19531 152.554 8.13379 152.422 8.01074C152.294 7.8877 152.23 7.70085 152.23 7.4502C152.23 7.19499 152.294 7.00814 152.422 6.88965C152.554 6.7666 152.718 6.70508 152.914 6.70508ZM159.422 9.37109C160.311 9.37109 160.983 9.58984 161.438 10.0273C161.894 10.4603 162.122 11.1576 162.122 12.1191V17H161.001V12.1943C161.001 11.57 160.857 11.1029 160.57 10.793C160.288 10.4831 159.853 10.3281 159.265 10.3281C158.435 10.3281 157.852 10.5628 157.515 11.0322C157.177 11.5016 157.009 12.1829 157.009 13.0762V17H155.874V9.50781H156.79L156.961 10.5879H157.022C157.182 10.3236 157.385 10.1025 157.631 9.9248C157.877 9.74251 158.153 9.60579 158.458 9.51465C158.763 9.41895 159.085 9.37109 159.422 9.37109ZM166.552 20.3633C165.567 20.3633 164.809 20.1787 164.275 19.8096C163.742 19.445 163.476 18.9323 163.476 18.2715C163.476 17.8021 163.624 17.401 163.92 17.0684C164.221 16.7357 164.635 16.5146 165.164 16.4053C164.968 16.3141 164.799 16.1774 164.658 15.9951C164.521 15.8128 164.453 15.6032 164.453 15.3662C164.453 15.0928 164.528 14.8535 164.679 14.6484C164.834 14.4388 165.068 14.2383 165.383 14.0469C164.991 13.8874 164.672 13.6185 164.426 13.2402C164.184 12.8574 164.063 12.4131 164.063 11.9072C164.063 11.3695 164.175 10.9115 164.398 10.5332C164.622 10.1504 164.945 9.85872 165.369 9.6582C165.793 9.45768 166.306 9.35742 166.907 9.35742C167.039 9.35742 167.172 9.36426 167.304 9.37793C167.44 9.38704 167.57 9.40299 167.693 9.42578C167.816 9.44401 167.924 9.4668 168.015 9.49414H170.585V10.2256L169.204 10.3965C169.341 10.5742 169.455 10.7884 169.546 11.0391C169.637 11.2897 169.683 11.5677 169.683 11.873C169.683 12.6204 169.43 13.2152 168.924 13.6572C168.418 14.0947 167.723 14.3135 166.839 14.3135C166.629 14.3135 166.415 14.2952 166.196 14.2588C165.973 14.3818 165.802 14.5186 165.684 14.6689C165.57 14.8193 165.513 14.9925 165.513 15.1885C165.513 15.3343 165.556 15.4505 165.643 15.5371C165.734 15.6237 165.864 15.6875 166.032 15.7285C166.201 15.765 166.404 15.7832 166.641 15.7832H167.96C168.776 15.7832 169.4 15.9541 169.833 16.2959C170.271 16.6377 170.489 17.1367 170.489 17.793C170.489 18.6224 170.152 19.2581 169.478 19.7002C168.803 20.1423 167.828 20.3633 166.552 20.3633ZM166.586 19.4746C167.206 19.4746 167.718 19.4108 168.124 19.2832C168.534 19.1602 168.84 18.9801 169.04 18.7432C169.245 18.5107 169.348 18.2327 169.348 17.9092C169.348 17.6084 169.279 17.3805 169.143 17.2256C169.006 17.0752 168.805 16.9749 168.541 16.9248C168.277 16.8701 167.953 16.8428 167.57 16.8428H166.271C165.934 16.8428 165.64 16.8952 165.39 17C165.139 17.1048 164.945 17.2598 164.809 17.4648C164.676 17.6699 164.61 17.9251 164.61 18.2305C164.61 18.6361 164.781 18.9437 165.123 19.1533C165.465 19.3675 165.952 19.4746 166.586 19.4746ZM166.88 13.4863C167.422 13.4863 167.83 13.3496 168.104 13.0762C168.377 12.8027 168.514 12.404 168.514 11.8799C168.514 11.3193 168.375 10.9001 168.097 10.6221C167.819 10.3395 167.409 10.1982 166.866 10.1982C166.347 10.1982 165.946 10.3441 165.663 10.6357C165.385 10.9229 165.246 11.3444 165.246 11.9004C165.246 12.4108 165.387 12.8027 165.67 13.0762C165.952 13.3496 166.356 13.4863 166.88 13.4863ZM178.48 7.00586C179.77 7.00586 180.711 7.25879 181.304 7.76465C181.901 8.26595 182.199 8.986 182.199 9.9248C182.199 10.3486 182.129 10.752 181.987 11.1348C181.851 11.513 181.627 11.848 181.317 12.1396C181.007 12.4268 180.6 12.6546 180.094 12.8232C179.592 12.9873 178.977 13.0693 178.248 13.0693H177.031V17H175.869V7.00586H178.48ZM178.371 7.99707H177.031V12.0713H178.118C178.756 12.0713 179.287 12.0029 179.711 11.8662C180.139 11.7295 180.461 11.5085 180.675 11.2031C180.889 10.8932 180.996 10.4831 180.996 9.97266C180.996 9.30729 180.784 8.81283 180.36 8.48926C179.937 8.16113 179.273 7.99707 178.371 7.99707ZM186.923 9.38477C187.816 9.38477 188.479 9.58529 188.912 9.98633C189.345 10.3874 189.562 11.0277 189.562 11.9072V17H188.734L188.516 15.8926H188.461C188.251 16.166 188.033 16.3962 187.805 16.583C187.577 16.7653 187.312 16.9043 187.012 17C186.715 17.0911 186.351 17.1367 185.918 17.1367C185.462 17.1367 185.057 17.057 184.701 16.8975C184.35 16.738 184.072 16.4964 183.867 16.1729C183.667 15.8493 183.566 15.4391 183.566 14.9424C183.566 14.195 183.863 13.6208 184.455 13.2197C185.048 12.8187 185.95 12.5999 187.162 12.5635L188.454 12.5088V12.0508C188.454 11.4036 188.315 10.9502 188.037 10.6904C187.759 10.4307 187.367 10.3008 186.861 10.3008C186.469 10.3008 186.096 10.3577 185.74 10.4717C185.385 10.5856 185.048 10.7201 184.729 10.875L184.38 10.0137C184.717 9.84049 185.104 9.69238 185.542 9.56934C185.979 9.44629 186.44 9.38477 186.923 9.38477ZM188.44 13.3086L187.299 13.3564C186.365 13.3929 185.706 13.5456 185.323 13.8145C184.94 14.0833 184.749 14.4639 184.749 14.9561C184.749 15.3844 184.879 15.7012 185.139 15.9062C185.398 16.1113 185.743 16.2139 186.171 16.2139C186.836 16.2139 187.381 16.0293 187.805 15.6602C188.229 15.291 188.44 14.7373 188.44 13.999V13.3086ZM194.319 16.207C194.506 16.207 194.698 16.1911 194.894 16.1592C195.09 16.1273 195.249 16.0885 195.372 16.043V16.9248C195.24 16.984 195.055 17.0342 194.818 17.0752C194.586 17.1162 194.358 17.1367 194.135 17.1367C193.738 17.1367 193.378 17.0684 193.055 16.9316C192.731 16.7904 192.471 16.5534 192.275 16.2207C192.084 15.888 191.988 15.4277 191.988 14.8398V10.3965H190.922V9.84277L191.995 9.39844L192.446 7.77148H193.13V9.50781H195.324V10.3965H193.13V14.8057C193.13 15.2751 193.237 15.626 193.451 15.8584C193.67 16.0908 193.959 16.207 194.319 16.207ZM198.024 6.36328V9.54199C198.024 9.72428 198.02 9.90885 198.011 10.0957C198.002 10.278 197.986 10.4466 197.963 10.6016H198.038C198.193 10.3372 198.389 10.1162 198.626 9.93848C198.868 9.75618 199.141 9.61947 199.446 9.52832C199.752 9.43262 200.075 9.38477 200.417 9.38477C201.019 9.38477 201.52 9.48047 201.921 9.67188C202.326 9.86328 202.63 10.1595 202.83 10.5605C203.035 10.9616 203.138 11.4811 203.138 12.1191V17H202.017V12.1943C202.017 11.57 201.873 11.1029 201.586 10.793C201.303 10.4831 200.868 10.3281 200.28 10.3281C199.724 10.3281 199.28 10.4352 198.947 10.6494C198.619 10.859 198.382 11.1689 198.236 11.5791C198.095 11.9893 198.024 12.4906 198.024 13.083V17H196.89V6.36328H198.024Z" fill="black"/>
</svg>
